<?xml version="1.0" encoding="UTF-8" standalone="no"?>
<svg width="281px" height="38px" viewBox="0 0 281 38" version="1.1" xmlns="http://www.w3.org/2000/svg" xmlns:xlink="http://www.w3.org/1999/xlink">
    <!-- Generator: Sketch 45.2 (43514) - http://www.bohemiancoding.com/sketch -->
    <title>logo</title>
    <desc>Created with Sketch.</desc>
    <defs>
        <linearGradient x1="50%" y1="100%" x2="50%" y2="0%" id="linearGradient-1">
            <stop stop-color="#0092FF" offset="0%"></stop>
            <stop stop-color="#2F72FF" offset="100%"></stop>
        </linearGradient>
        <linearGradient x1="50%" y1="0%" x2="50%" y2="100%" id="linearGradient-2">
            <stop stop-color="#2F72FF" offset="0%"></stop>
            <stop stop-color="#0192FF" offset="100%"></stop>
        </linearGradient>
        <circle id="path-3" cx="18.3333333" cy="18.3333333" r="5.13333333"></circle>
    </defs>
    <g id="Symbols" stroke="none" stroke-width="1" fill="none" fill-rule="evenodd">
        <g id="logo" transform="translate(-7.000000, -7.000000)">
            <g transform="translate(-1.000000, -1.000000)">
                <g id="icon" transform="translate(26.927249, 26.691546) rotate(225.000000) translate(-26.927249, -26.691546) translate(8.427249, 8.191546)">
                    <path d="M0,18.3333333 C0,8.20811292 8.20811292,0 18.3333333,0 C28.4585537,0 36.6666667,8.20811292 36.6666667,18.3333333 C36.6666667,28.4585537 28.4585537,36.6666667 18.3333333,36.6666667 L18.3333333,29.3333333 C24.4084656,29.3333333 29.3333333,24.4084656 29.3333333,18.3333333 C29.3333333,12.2582011 24.4084656,7.33333333 18.3333333,7.33333333 C12.2582011,7.33333333 7.33333333,12.2582011 7.33333333,18.3333333 L0,18.3333333 Z" id="Oval" fill="#FFFFFF" fill-rule="nonzero"></path>
                    <g id="Oval">
                        <use fill="url(#linearGradient-1)" fill-rule="evenodd" xlink:href="#path-3"></use>
                        <circle stroke="url(#linearGradient-2)" stroke-width="2" cx="18.3333333" cy="18.3333333" r="4.13333333"></circle>
                    </g>
                </g>
                <path d="M57.5186667,21.5346552 C56.8826635,21.2526538 56.22867,21.1116552 55.5566667,21.1116552 C54.6686622,21.1116552 53.8526704,21.327653 53.1086667,21.7596552 C52.3646629,22.1916573 51.7766688,22.7766515 51.3446667,23.5146552 C50.9126645,24.2526589 50.6966667,25.0656507 50.6966667,25.9536552 C50.6966667,26.8296596 50.9126645,27.6396515 51.3446667,28.3836552 C51.7766688,29.1276589 52.3646629,29.715653 53.1086667,30.1476552 C53.8526704,30.5796573 54.6686622,30.7956552 55.5566667,30.7956552 C56.21667,30.7956552 56.8646635,30.6606565 57.5006667,30.3906552 C58.1366698,30.1206538 58.7006642,29.7516575 59.1926667,29.2836552 L60.2366667,30.4176552 C59.6006635,31.0416583 58.8626709,31.5306534 58.0226667,31.8846552 C57.1826625,32.2386569 56.330671,32.4156552 55.4666667,32.4156552 C54.2666607,32.4156552 53.1686716,32.130658 52.1726667,31.5606552 C51.1766617,30.9906523 50.3906695,30.2136601 49.8146667,29.2296552 C49.2386638,28.2456503 48.9506667,27.1596611 48.9506667,25.9716552 C48.9506667,24.7956493 49.2416638,23.7186601 49.8236667,22.7406552 C50.4056696,21.7626503 51.2006616,20.991658 52.2086667,20.4276552 C53.2166717,19.8636524 54.3266606,19.5816552 55.5386667,19.5816552 C56.414671,19.5816552 57.2636626,19.7466535 58.0856667,20.0766552 C58.9076708,20.4066568 59.6186637,20.8716522 60.2186667,21.4716552 L59.1926667,22.7136552 C58.7126643,22.2096527 58.1546698,21.8166566 57.5186667,21.5346552 Z M75.0996667,20.5086552 C76.0896716,21.0546579 76.8666638,21.8076504 77.4306667,22.7676552 C77.9946695,23.72766 78.2766667,24.8016492 78.2766667,25.9896552 C78.2766667,27.1776611 77.9916695,28.2516504 77.4216667,29.2116552 C76.8516638,30.17166 76.0686716,30.9246524 75.0726667,31.4706552 C74.0766617,32.0166579 72.9606728,32.2896552 71.7246667,32.2896552 L66.6486667,32.2896552 L66.6486667,19.6896552 L71.7786667,19.6896552 C73.0026728,19.6896552 74.1096617,19.9626524 75.0996667,20.5086552 Z M74.1996667,30.1116552 C74.9136702,29.7036531 75.4776646,29.1396588 75.8916667,28.4196552 C76.3056687,27.6996516 76.5126667,26.8956596 76.5126667,26.0076552 C76.5126667,25.1076507 76.3026688,24.2976588 75.8826667,23.5776552 C75.4626646,22.8576516 74.8896703,22.2906572 74.1636667,21.8766552 C73.437663,21.4626531 72.6306711,21.2556552 71.7426667,21.2556552 L68.3766667,21.2556552 L68.3766667,30.7236552 L71.8146667,30.7236552 C72.690671,30.7236552 73.4856631,30.5196572 74.1996667,30.1116552 Z M93.1936667,20.4276552 C94.2076717,20.991658 95.0086637,21.7626503 95.5966667,22.7406552 C96.1846696,23.7186601 96.4786667,24.7956493 96.4786667,25.9716552 C96.4786667,27.1476611 96.1846696,28.2306502 95.5966667,29.2206552 C95.0086637,30.2106601 94.2076717,30.9906523 93.1936667,31.5606552 C92.1796616,32.130658 91.0666727,32.4156552 89.8546667,32.4156552 C88.6426606,32.4156552 87.5296717,32.130658 86.5156667,31.5606552 C85.5016616,30.9906523 84.7006696,30.2106601 84.1126667,29.2206552 C83.5246637,28.2306502 83.2306667,27.1476611 83.2306667,25.9716552 C83.2306667,24.7956493 83.5246637,23.7186601 84.1126667,22.7406552 C84.7006696,21.7626503 85.4986616,20.991658 86.5066667,20.4276552 C87.5146717,19.8636524 88.6306605,19.5816552 89.8546667,19.5816552 C91.0666727,19.5816552 92.1796616,19.8636524 93.1936667,20.4276552 Z M87.4336667,21.7776552 C86.6836629,22.2096573 86.0866689,22.7946515 85.6426667,23.5326552 C85.1986644,24.2706589 84.9766667,25.0836507 84.9766667,25.9716552 C84.9766667,26.8596596 85.1986644,27.6756515 85.6426667,28.4196552 C86.0866689,29.1636589 86.6836629,29.754653 87.4336667,30.1926552 C88.1836704,30.6306574 88.9966623,30.8496552 89.8726667,30.8496552 C90.748671,30.8496552 91.555663,30.6306574 92.2936667,30.1926552 C93.0316704,29.754653 93.6196645,29.1636589 94.0576667,28.4196552 C94.4956689,27.6756515 94.7146667,26.8596596 94.7146667,25.9716552 C94.7146667,25.0836507 94.4956689,24.2706589 94.0576667,23.5326552 C93.6196645,22.7946515 93.0316704,22.2096573 92.2936667,21.7776552 C91.555663,21.345653 90.748671,21.1296552 89.8726667,21.1296552 C88.9966623,21.1296552 88.1836704,21.345653 87.4336667,21.7776552 Z M101.144667,19.6896552 L110.990667,19.6896552 L110.990667,21.2736552 L106.922667,21.2736552 L106.922667,32.2896552 L105.194667,32.2896552 L105.194667,21.2736552 L101.144667,21.2736552 L101.144667,19.6896552 Z M125.686667,19.6896552 L134.434667,19.6896552 L134.434667,21.2556552 L127.414667,21.2556552 L127.414667,25.1436552 L133.696667,25.1436552 L133.696667,26.7096552 L127.414667,26.7096552 L127.414667,30.7236552 L134.650667,30.7236552 L134.650667,32.2896552 L125.686667,32.2896552 L125.686667,19.6896552 Z M150.404667,19.6896552 L152.114667,19.6896552 L152.114667,32.2896552 L150.368667,32.2896552 L143.168667,22.5336552 L143.168667,32.2896552 L141.440667,32.2896552 L141.440667,19.6896552 L143.186667,19.6896552 L150.404667,29.4636552 L150.404667,19.6896552 Z M158.112667,19.6896552 L167.958667,19.6896552 L167.958667,21.2736552 L163.890667,21.2736552 L163.890667,32.2896552 L162.162667,32.2896552 L162.162667,21.2736552 L158.112667,21.2736552 L158.112667,19.6896552 Z M173.938667,19.6896552 L182.686667,19.6896552 L182.686667,21.2556552 L175.666667,21.2556552 L175.666667,25.1436552 L181.948667,25.1436552 L181.948667,26.7096552 L175.666667,26.7096552 L175.666667,30.7236552 L182.902667,30.7236552 L182.902667,32.2896552 L173.938667,32.2896552 L173.938667,19.6896552 Z M197.828667,32.2896552 L195.326667,28.3296552 C195.038665,28.3536553 194.804668,28.3656552 194.624667,28.3656552 L191.420667,28.3656552 L191.420667,32.2896552 L189.692667,32.2896552 L189.692667,19.6896552 L194.624667,19.6896552 C196.220675,19.6896552 197.453662,20.0586515 198.323667,20.7966552 C199.193671,21.5346589 199.628667,22.5816484 199.628667,23.9376552 C199.628667,24.9576603 199.391669,25.8156517 198.917667,26.5116552 C198.443664,27.2076587 197.762671,27.7116536 196.874667,28.0236552 L199.808667,32.2896552 L197.828667,32.2896552 Z M194.624667,26.7996552 C195.704672,26.7996552 196.532664,26.5626575 197.108667,26.0886552 C197.68467,25.6146528 197.972667,24.9156598 197.972667,23.9916552 C197.972667,23.0916507 197.68467,22.4106575 197.108667,21.9486552 C196.532664,21.4866529 195.704672,21.2556552 194.624667,21.2556552 L191.420667,21.2556552 L191.420667,26.7996552 L194.624667,26.7996552 Z M215.211667,20.8056552 C216.069671,21.5496589 216.498667,22.5936485 216.498667,23.9376552 C216.498667,25.3416622 216.066671,26.4306513 215.202667,27.2046552 C214.338662,27.978659 213.126674,28.3656552 211.566667,28.3656552 L208.434667,28.3656552 L208.434667,32.2896552 L206.706667,32.2896552 L206.706667,19.6896552 L211.566667,19.6896552 C213.138675,19.6896552 214.353662,20.0616515 215.211667,20.8056552 Z M213.978667,26.0886552 C214.55467,25.6146528 214.842667,24.9156598 214.842667,23.9916552 C214.842667,23.0916507 214.55467,22.4106575 213.978667,21.9486552 C213.402664,21.4866529 212.574672,21.2556552 211.494667,21.2556552 L208.434667,21.2736552 L208.434667,26.7996552 L211.494667,26.7996552 C212.574672,26.7996552 213.402664,26.5626575 213.978667,26.0886552 Z M230.920667,32.2896552 L228.418667,28.3296552 C228.130665,28.3536553 227.896668,28.3656552 227.716667,28.3656552 L224.512667,28.3656552 L224.512667,32.2896552 L222.784667,32.2896552 L222.784667,19.6896552 L227.716667,19.6896552 C229.312675,19.6896552 230.545662,20.0586515 231.415667,20.7966552 C232.285671,21.5346589 232.720667,22.5816484 232.720667,23.9376552 C232.720667,24.9576603 232.483669,25.8156517 232.009667,26.5116552 C231.535664,27.2076587 230.854671,27.7116536 229.966667,28.0236552 L232.900667,32.2896552 L230.920667,32.2896552 Z M227.716667,26.7996552 C228.796672,26.7996552 229.624664,26.5626575 230.200667,26.0886552 C230.77667,25.6146528 231.064667,24.9156598 231.064667,23.9916552 C231.064667,23.0916507 230.77667,22.4106575 230.200667,21.9486552 C229.624664,21.4866529 228.796672,21.2556552 227.716667,21.2556552 L224.512667,21.2556552 L224.512667,26.7996552 L227.716667,26.7996552 Z M239.798667,19.6896552 L241.526667,19.6896552 L241.526667,32.2896552 L239.798667,32.2896552 L239.798667,19.6896552 Z M254.661667,21.4806552 C254.031664,21.2946542 253.452669,21.2016552 252.924667,21.2016552 C252.192663,21.2016552 251.607669,21.3426538 251.169667,21.6246552 C250.731664,21.9066566 250.512667,22.2936527 250.512667,22.7856552 C250.512667,23.2296574 250.644665,23.5926538 250.908667,23.8746552 C251.172668,24.1566566 251.496665,24.3786544 251.880667,24.5406552 C252.264669,24.702656 252.798663,24.8916541 253.482667,25.1076552 C254.334671,25.3716565 255.024664,25.623654 255.552667,25.8636552 C256.080669,26.1036564 256.530665,26.4606528 256.902667,26.9346552 C257.274669,27.4086575 257.460667,28.0356513 257.460667,28.8156552 C257.460667,29.5356588 257.265669,30.1656525 256.875667,30.7056552 C256.485665,31.2456579 255.93967,31.6626537 255.237667,31.9566552 C254.535663,32.2506566 253.728671,32.3976552 252.816667,32.3976552 C251.892662,32.3976552 250.992671,32.217657 250.116667,31.8576552 C249.240662,31.4976534 248.48467,31.0176582 247.848667,30.4176552 L248.622667,28.9236552 C249.22267,29.5116581 249.897663,29.9646536 250.647667,30.2826552 C251.39767,30.6006568 252.126663,30.7596552 252.834667,30.7596552 C253.674671,30.7596552 254.337664,30.5946568 254.823667,30.2646552 C255.309669,29.9346535 255.552667,29.487658 255.552667,28.9236552 C255.552667,28.479653 255.420668,28.1136566 255.156667,27.8256552 C254.892665,27.5376537 254.559669,27.309656 254.157667,27.1416552 C253.755665,26.9736543 253.21267,26.7876562 252.528667,26.5836552 C251.688662,26.3316539 251.004669,26.0856564 250.476667,25.8456552 C249.948664,25.605654 249.501668,25.2516575 249.135667,24.7836552 C248.769665,24.3156528 248.586667,23.697659 248.586667,22.9296552 C248.586667,22.2576518 248.772665,21.6636578 249.144667,21.1476552 C249.516669,20.6316526 250.038663,20.2356566 250.710667,19.9596552 C251.38267,19.6836538 252.162662,19.5456552 253.050667,19.5456552 C253.80667,19.5456552 254.547663,19.6566541 255.273667,19.8786552 C255.99967,20.1006563 256.644664,20.3976533 257.208667,20.7696552 L256.488667,22.3176552 C255.900664,21.9456533 255.29167,21.6666561 254.661667,21.4806552 Z M264.214667,19.6896552 L272.962667,19.6896552 L272.962667,21.2556552 L265.942667,21.2556552 L265.942667,25.1436552 L272.224667,25.1436552 L272.224667,26.7096552 L265.942667,26.7096552 L265.942667,30.7236552 L273.178667,30.7236552 L273.178667,32.2896552 L264.214667,32.2896552 L264.214667,19.6896552 Z M285.503667,21.4806552 C284.873664,21.2946542 284.294669,21.2016552 283.766667,21.2016552 C283.034663,21.2016552 282.449669,21.3426538 282.011667,21.6246552 C281.573664,21.9066566 281.354667,22.2936527 281.354667,22.7856552 C281.354667,23.2296574 281.486665,23.5926538 281.750667,23.8746552 C282.014668,24.1566566 282.338665,24.3786544 282.722667,24.5406552 C283.106669,24.702656 283.640663,24.8916541 284.324667,25.1076552 C285.176671,25.3716565 285.866664,25.623654 286.394667,25.8636552 C286.922669,26.1036564 287.372665,26.4606528 287.744667,26.9346552 C288.116669,27.4086575 288.302667,28.0356513 288.302667,28.8156552 C288.302667,29.5356588 288.107669,30.1656525 287.717667,30.7056552 C287.327665,31.2456579 286.78167,31.6626537 286.079667,31.9566552 C285.377663,32.2506566 284.570671,32.3976552 283.658667,32.3976552 C282.734662,32.3976552 281.834671,32.217657 280.958667,31.8576552 C280.082662,31.4976534 279.32667,31.0176582 278.690667,30.4176552 L279.464667,28.9236552 C280.06467,29.5116581 280.739663,29.9646536 281.489667,30.2826552 C282.23967,30.6006568 282.968663,30.7596552 283.676667,30.7596552 C284.516671,30.7596552 285.179664,30.5946568 285.665667,30.2646552 C286.151669,29.9346535 286.394667,29.487658 286.394667,28.9236552 C286.394667,28.479653 286.262668,28.1136566 285.998667,27.8256552 C285.734665,27.5376537 285.401669,27.309656 284.999667,27.1416552 C284.597665,26.9736543 284.05467,26.7876562 283.370667,26.5836552 C282.530662,26.3316539 281.846669,26.0856564 281.318667,25.8456552 C280.790664,25.605654 280.343668,25.2516575 279.977667,24.7836552 C279.611665,24.3156528 279.428667,23.697659 279.428667,22.9296552 C279.428667,22.2576518 279.614665,21.6636578 279.986667,21.1476552 C280.358669,20.6316526 280.880663,20.2356566 281.552667,19.9596552 C282.22467,19.6836538 283.004662,19.5456552 283.892667,19.5456552 C284.64867,19.5456552 285.389663,19.6566541 286.115667,19.8786552 C286.84167,20.1006563 287.486664,20.3976533 288.050667,20.7696552 L287.330667,22.3176552 C286.742664,21.9456533 286.13367,21.6666561 285.503667,21.4806552 Z" id="CDOT-ENTERPRISES" fill="#FFFFFF"></path>
            </g>
        </g>
    </g>
</svg>